<?xml version="1.0" encoding="UTF-8" standalone="no"?>
<!DOCTYPE svg PUBLIC "-//W3C//DTD SVG 1.1//EN" "http://www.w3.org/Graphics/SVG/1.1/DTD/svg11.dtd">
<svg width="100%" height="100%" viewBox="0 0 130 192" version="1.1" xmlns="http://www.w3.org/2000/svg" xmlns:xlink="http://www.w3.org/1999/xlink" xml:space="preserve" xmlns:serif="http://www.serif.com/" style="fill-rule:evenodd;clip-rule:evenodd;stroke-linecap:round;stroke-linejoin:round;stroke-miterlimit:1.5;">
    <g transform="matrix(1,0,0,1,-5132.276302,-3591)">
        <g id="Artboard1" transform="matrix(0.12037,0,0,0.142222,4445.104642,3591)">
            <rect x="5708.811" y="0" width="1080" height="1350" style="fill:none;"/>
            <clipPath id="_clip1">
                <rect x="5708.811" y="0" width="1080" height="1350"/>
            </clipPath>
            <g clip-path="url(#_clip1)">
                <g transform="matrix(1.384615,0,0,1,-2359.265631,0)">
                    <g>
                        <g transform="matrix(1.941044,0,0,2.274661,838.0752,-944.477967)">
                            <g transform="matrix(-0.914104,0,0,1.384188,3185.03075,-125.784226)">
                                <path d="M439.38,805.713L247.817,805.713C238.11,794.594 233,781.981 233,769.142C233,728.774 282.558,696 343.598,696C404.639,696 454.197,728.774 454.197,769.142C454.197,781.981 449.087,794.594 439.38,805.713Z" style="fill:rgb(42,196,19);"/>
                            </g>
                            <g transform="matrix(-0.932515,0,0,1,3255.688116,31.774216)">
                                <path d="M662.162,957.75L379.838,957.75C365.532,934.871 358,908.918 358,882.5C358,799.437 431.038,732 521,732C610.962,732 684,799.437 684,882.5C684,908.918 676.468,934.871 662.162,957.75Z" style="fill:rgb(42,196,19);"/>
                            </g>
                            <g transform="matrix(-1.648649,0,0,1.648649,3288.388166,-449.036595)">
                                <circle cx="266" cy="769" r="37" style="fill:rgb(42,196,19);"/>
                            </g>
                            <g transform="matrix(-0.587347,0,0,0.574405,3033.687247,414.30832)">
                                <ellipse cx="313" cy="822" rx="53" ry="21" style="fill:rgb(236,177,213);"/>
                            </g>
                            <g transform="matrix(-1.648649,0,0,1.648649,3132.738895,-449.036595)">
                                <circle cx="266" cy="769" r="37" style="fill:rgb(42,196,19);"/>
                            </g>
                            <g transform="matrix(-0.587347,0,0,0.574405,2871.616408,414.30832)">
                                <ellipse cx="313" cy="822" rx="53" ry="21" style="fill:rgb(236,177,213);"/>
                            </g>
                            <g transform="matrix(-1.424242,0,0,1.424242,3462.271868,-323.468208)">
                                <circle cx="430" cy="802" r="33" style="fill:rgb(255,196,50);"/>
                            </g>
                            <g transform="matrix(-1.424242,0,0,1.424242,3306.622597,-323.468208)">
                                <circle cx="430" cy="802" r="33" style="fill:rgb(255,196,50);"/>
                            </g>
                            <g transform="matrix(-0.685864,0,0,0.938397,3122.525636,92.44871)">
                                <path d="M604.205,955.75L438.795,955.75C430.413,945.945 426,934.822 426,923.5C426,887.901 468.792,859 521.5,859C574.208,859 617,887.901 617,923.5C617,934.822 612.587,945.945 604.205,955.75Z" style="fill:rgb(255,196,50);"/>
                            </g>
                            <g transform="matrix(0.483193,0.337033,-0.275295,0.394682,3037.976252,528.231741)">
                                <ellipse cx="295.5" cy="875.375" rx="41.5" ry="82.375" style="fill:rgb(42,196,19);"/>
                            </g>
                            <g transform="matrix(0.483193,0.337033,-0.275295,0.394682,2925.069968,528.231741)">
                                <ellipse cx="295.5" cy="875.375" rx="41.5" ry="82.375" style="fill:rgb(42,196,19);"/>
                            </g>
                            <g transform="matrix(0.582475,0,0,-1,2459.178877,1517.211461)">
                                <path d="M508.209,679.779C512.917,683.567 513.101,685.333 526.741,681.883C538.376,678.941 540.783,675.469 540.783,675.469C540.783,675.469 570.666,684.793 572.876,677.683" style="fill:none;stroke:black;stroke-width:3.78px;"/>
                            </g>
                            <g transform="matrix(-1.39529,0,0,1.39529,3315.957499,-126.377139)">
                                <circle cx="445.613" cy="677.387" r="23.613" style="fill:rgb(41,41,41);"/>
                            </g>
                            <g transform="matrix(-1.39529,0,0,1.39529,3471.60677,-126.377139)">
                                <circle cx="445.613" cy="677.387" r="23.613" style="fill:rgb(41,41,41);"/>
                            </g>
                            <g transform="matrix(-1.424242,0,0,1.424242,3354.615239,-131.195481)">
                                <circle cx="470.31" cy="660.387" r="6.613" style="fill:white;"/>
                            </g>
                            <g transform="matrix(-1.424242,0,0,1.424242,3510.26451,-131.195481)">
                                <circle cx="470.31" cy="660.387" r="6.613" style="fill:white;"/>
                            </g>
                            <g transform="matrix(-1,0,0,1,4440.565513,0)">
                                <g transform="matrix(1,0,0,1,1123.025082,0)">
                                    <path d="M458.993,883.126L455.174,889.883" style="fill:none;stroke:black;stroke-width:3.09px;"/>
                                </g>
                                <g transform="matrix(1,0,0,1,1123.025082,0)">
                                    <path d="M468.843,884.322L465.288,891.294" style="fill:none;stroke:black;stroke-width:3.09px;"/>
                                </g>
                                <g transform="matrix(1,0,0,1,1123.025082,0)">
                                    <path d="M482.542,885.078L477.834,893.339" style="fill:none;stroke:black;stroke-width:3.09px;"/>
                                </g>
                                <g transform="matrix(1,0,0,1,1123.025082,0)">
                                    <path d="M620.069,884.829L617.328,890.553" style="fill:none;stroke:black;stroke-width:3.09px;"/>
                                </g>
                                <g transform="matrix(1,0,0,1,1123.025082,0)">
                                    <path d="M632.51,884.243L629.926,892.634" style="fill:none;stroke:black;stroke-width:3.09px;"/>
                                </g>
                                <g transform="matrix(1,0,0,1,1123.025082,0)">
                                    <path d="M644.441,884.016L642.538,890.265" style="fill:none;stroke:black;stroke-width:3.09px;"/>
                                </g>
                            </g>
                        </g>
                        <g transform="matrix(-1.56283,0,0,1.831441,6827.694905,-265.331007)">
                            <circle cx="470.31" cy="660.387" r="6.613" style="fill:white;"/>
                        </g>
                        <g transform="matrix(-1.56283,0,0,1.831441,7129.816964,-265.331007)">
                            <circle cx="470.31" cy="660.387" r="6.613" style="fill:white;"/>
                        </g>
                    </g>
                    <g transform="matrix(0.937898,0.766635,-0.53436,0.897767,6171.714393,257.07004)">
                        <ellipse cx="295.5" cy="875.375" rx="41.5" ry="82.375" style="fill:rgb(42,196,19);"/>
                    </g>
                </g>
            </g>
        </g>
    </g>
</svg>
