<?xml version="1.0" encoding="UTF-8" standalone="no"?>
<!DOCTYPE svg PUBLIC "-//W3C//DTD SVG 1.1//EN" "http://www.w3.org/Graphics/SVG/1.1/DTD/svg11.dtd">
<svg width="100%" height="100%" viewBox="0 0 180 204" version="1.1" xmlns="http://www.w3.org/2000/svg" xmlns:xlink="http://www.w3.org/1999/xlink" xml:space="preserve" xmlns:serif="http://www.serif.com/" style="fill-rule:evenodd;clip-rule:evenodd;stroke-linecap:round;stroke-linejoin:round;stroke-miterlimit:1.5;">
    <g transform="matrix(1,0,0,1,-5082.276302,-3579)">
        <g id="Artboard1" transform="matrix(0.166667,0,0,0.151111,4130.807849,3579)">
            <rect x="5708.811" y="0" width="1080" height="1350" style="fill:none;"/>
            <clipPath id="_clip1">
                <rect x="5708.811" y="0" width="1080" height="1350"/>
            </clipPath>
            <g clip-path="url(#_clip1)">
                <g transform="matrix(1.941044,0,0,2.140857,838.0752,-809.508675)">
                    <g transform="matrix(-0.914104,0,0,1.384188,3185.03075,-125.784226)">
                        <path d="M439.38,805.713L247.817,805.713C238.11,794.594 233,781.981 233,769.142C233,728.774 282.558,696 343.598,696C404.639,696 454.197,728.774 454.197,769.142C454.197,781.981 449.087,794.594 439.38,805.713Z" style="fill:rgb(42,196,19);"/>
                    </g>
                    <g transform="matrix(-0.932515,0,0,1,3255.688116,31.774216)">
                        <path d="M662.162,957.75L379.838,957.75C365.532,934.871 358,908.918 358,882.5C358,799.437 431.038,732 521,732C610.962,732 684,799.437 684,882.5C684,908.918 676.468,934.871 662.162,957.75Z" style="fill:rgb(42,196,19);"/>
                    </g>
                    <g transform="matrix(-1.648649,0,0,1.648649,3288.388166,-449.036595)">
                        <circle cx="266" cy="769" r="37" style="fill:rgb(42,196,19);"/>
                    </g>
                    <g transform="matrix(-0.587347,0,0,0.574405,3033.687247,414.30832)">
                        <ellipse cx="313" cy="822" rx="53" ry="21" style="fill:rgb(236,177,213);"/>
                    </g>
                    <g transform="matrix(-1.648649,0,0,1.648649,3132.738895,-449.036595)">
                        <circle cx="266" cy="769" r="37" style="fill:rgb(42,196,19);"/>
                    </g>
                    <g transform="matrix(-0.587347,0,0,0.574405,2871.616408,414.30832)">
                        <ellipse cx="313" cy="822" rx="53" ry="21" style="fill:rgb(236,177,213);"/>
                    </g>
                    <g transform="matrix(-1.424242,0,0,1.424242,3462.271868,-323.468208)">
                        <circle cx="430" cy="802" r="33" style="fill:rgb(255,196,50);"/>
                    </g>
                    <g transform="matrix(-1.424242,0,0,1.424242,3306.622597,-323.468208)">
                        <circle cx="430" cy="802" r="33" style="fill:rgb(255,196,50);"/>
                    </g>
                    <g transform="matrix(-0.685864,0,0,0.938397,3122.525636,92.44871)">
                        <path d="M604.205,955.75L438.795,955.75C430.413,945.945 426,934.822 426,923.5C426,887.901 468.792,859 521.5,859C574.208,859 617,887.901 617,923.5C617,934.822 612.587,945.945 604.205,955.75Z" style="fill:rgb(255,196,50);"/>
                    </g>
                    <g transform="matrix(0.483193,0.337033,-0.275295,0.394682,3037.976252,528.231741)">
                        <ellipse cx="295.5" cy="875.375" rx="41.5" ry="82.375" style="fill:rgb(42,196,19);"/>
                    </g>
                    <g transform="matrix(0.483193,0.337033,-0.275295,0.394682,2925.069968,528.231741)">
                        <ellipse cx="295.5" cy="875.375" rx="41.5" ry="82.375" style="fill:rgb(42,196,19);"/>
                    </g>
                    <g transform="matrix(-0.294562,0.510196,-0.416738,-0.240604,3069.692826,987.389455)">
                        <ellipse cx="295.5" cy="875.375" rx="41.5" ry="82.375" style="fill:rgb(42,196,19);"/>
                    </g>
                    <g transform="matrix(0.582475,0,0,-1,2459.178877,1517.211461)">
                        <path d="M508.209,679.779C512.917,683.567 513.101,685.333 526.741,681.883C538.376,678.941 540.783,675.469 540.783,675.469C540.783,675.469 570.666,684.793 572.876,677.683" style="fill:none;stroke:black;stroke-width:3.78px;"/>
                    </g>
                    <g transform="matrix(-1.39529,0,0,1.39529,3315.957499,-126.377139)">
                        <circle cx="445.613" cy="677.387" r="23.613" style="fill:rgb(41,41,41);"/>
                    </g>
                    <g transform="matrix(-1.39529,0,0,1.39529,3471.60677,-126.377139)">
                        <circle cx="445.613" cy="677.387" r="23.613" style="fill:rgb(41,41,41);"/>
                    </g>
                    <g transform="matrix(-1.424242,0,0,1.424242,3354.615239,-131.195481)">
                        <circle cx="470.31" cy="660.387" r="6.613" style="fill:white;"/>
                    </g>
                    <g transform="matrix(-1.424242,0,0,1.424242,3510.26451,-131.195481)">
                        <circle cx="470.31" cy="660.387" r="6.613" style="fill:white;"/>
                    </g>
                    <g transform="matrix(-0.241643,-0.901824,2.416825,-0.785572,1321.146143,1851.947426)">
                        <path d="M770.596,730.044C748.739,722.589 733,701.868 733,677.5C733,646.869 757.869,622 788.5,622C811.14,622 830.632,635.586 839.262,655.042C870.296,650.027 898.698,653.879 910.018,666.244C925.334,682.973 903.617,708.989 861.552,724.305C828.088,736.489 791.763,738.254 770.596,730.044Z" style="fill:rgb(42,196,19);"/>
                    </g>
                    <path d="M2725.678,606.848C2717.782,616.315 2709.886,625.783 2701.99,635.25" style="fill:none;stroke:black;stroke-width:3.09px;"/>
                    <path d="M2770.755,602.581C2765.052,612.168 2759.348,621.755 2753.644,631.343" style="fill:none;stroke:black;stroke-width:3.09px;"/>
                    <path d="M2830.916,591.319C2824.438,599.437 2817.959,607.555 2811.481,615.673" style="fill:none;stroke:black;stroke-width:3.09px;"/>
                    <path d="M2718.969,528.315C2731.383,533.163 2743.796,538.011 2756.21,542.859" style="fill:none;stroke:black;stroke-width:3.09px;"/>
                    <path d="M2760.148,513.465C2771.407,520.563 2782.666,527.661 2793.925,534.759" style="fill:none;stroke:black;stroke-width:3.09px;"/>
                    <path d="M2809.787,515.379C2821.862,521.42 2833.938,527.46 2846.013,533.501" style="fill:none;stroke:black;stroke-width:3.09px;"/>
                    <path d="M2876.097,561.844C2876.097,561.844 2792.329,577.816 2706.255,580.988C2664.449,582.528 2656.608,578.713 2643.684,618.268" style="fill:none;stroke:black;stroke-width:3.09px;"/>
                    <path d="M2645.072,674.45C2640.438,761.204 2563.244,790.578 2585.062,855.459C2588.208,864.814 2614.19,942.076 2605.342,977.166" style="fill:none;stroke:black;stroke-width:3.09px;"/>
                    <g transform="matrix(-1,0,0,1,4440.565513,0)">
                        <g transform="matrix(1,0,0,1,1123.025082,0)">
                            <path d="M458.993,883.126L455.174,889.883" style="fill:none;stroke:black;stroke-width:3.09px;"/>
                        </g>
                        <g transform="matrix(1,0,0,1,1123.025082,0)">
                            <path d="M468.843,884.322L465.288,891.294" style="fill:none;stroke:black;stroke-width:3.09px;"/>
                        </g>
                        <g transform="matrix(1,0,0,1,1123.025082,0)">
                            <path d="M482.542,885.078L477.834,893.339" style="fill:none;stroke:black;stroke-width:3.09px;"/>
                        </g>
                        <g transform="matrix(1,0,0,1,1123.025082,0)">
                            <path d="M620.069,884.829L617.328,890.553" style="fill:none;stroke:black;stroke-width:3.09px;"/>
                        </g>
                        <g transform="matrix(1,0,0,1,1123.025082,0)">
                            <path d="M632.51,884.243L629.926,892.634" style="fill:none;stroke:black;stroke-width:3.09px;"/>
                        </g>
                        <g transform="matrix(1,0,0,1,1123.025082,0)">
                            <path d="M644.441,884.016L642.538,890.265" style="fill:none;stroke:black;stroke-width:3.09px;"/>
                        </g>
                    </g>
                    <g transform="matrix(0.979448,0,0,0.823208,206.125711,187.185823)">
                        <path d="M2431.329,420C2431.329,420 2455.658,459.937 2455.658,477.053C2455.658,493.029 2444.757,506 2431.329,506C2417.901,506 2407,493.029 2407,477.053C2407,459.937 2431.329,420 2431.329,420Z" style="fill:rgb(55,156,202);"/>
                    </g>
                    <g transform="matrix(0.979448,0,0,0.823208,429.859686,105.560457)">
                        <path d="M2431.329,420C2431.329,420 2455.658,459.937 2455.658,477.053C2455.658,493.029 2444.757,506 2431.329,506C2417.901,506 2407,493.029 2407,477.053C2407,459.937 2431.329,420 2431.329,420Z" style="fill:rgb(55,156,202);"/>
                    </g>
                    <g transform="matrix(0.979448,0,0,0.823208,660.549355,140.958402)">
                        <path d="M2431.329,420C2431.329,420 2455.658,459.937 2455.658,477.053C2455.658,493.029 2444.757,506 2431.329,506C2417.901,506 2407,493.029 2407,477.053C2407,459.937 2431.329,420 2431.329,420Z" style="fill:rgb(55,156,202);"/>
                    </g>
                    <g transform="matrix(0.979448,0,0,0.823208,571.549355,245.721716)">
                        <path d="M2431.329,420C2431.329,420 2455.658,459.937 2455.658,477.053C2455.658,493.029 2444.757,506 2431.329,506C2417.901,506 2407,493.029 2407,477.053C2407,459.937 2431.329,420 2431.329,420Z" style="fill:rgb(55,156,202);"/>
                    </g>
                    <g transform="matrix(0.979448,0,0,0.823208,658.539004,382.628902)">
                        <path d="M2431.329,420C2431.329,420 2455.658,459.937 2455.658,477.053C2455.658,493.029 2444.757,506 2431.329,506C2417.901,506 2407,493.029 2407,477.053C2407,459.937 2431.329,420 2431.329,420Z" style="fill:rgb(55,156,202);"/>
                    </g>
                    <g transform="matrix(0.979448,0,0,0.823208,151.805825,373.62984)">
                        <path d="M2431.329,420C2431.329,420 2455.658,459.937 2455.658,477.053C2455.658,493.029 2444.757,506 2431.329,506C2417.901,506 2407,493.029 2407,477.053C2407,459.937 2431.329,420 2431.329,420Z" style="fill:rgb(55,156,202);"/>
                    </g>
                    <g transform="matrix(0.979448,0,0,0.823208,295.783834,36.126026)">
                        <path d="M2431.329,420C2431.329,420 2455.658,459.937 2455.658,477.053C2455.658,493.029 2444.757,506 2431.329,506C2417.901,506 2407,493.029 2407,477.053C2407,459.937 2431.329,420 2431.329,420Z" style="fill:rgb(55,156,202);"/>
                    </g>
                    <g transform="matrix(0.979448,0,0,0.823208,574.603713,52.126026)">
                        <path d="M2431.329,420C2431.329,420 2455.658,459.937 2455.658,477.053C2455.658,493.029 2444.757,506 2431.329,506C2417.901,506 2407,493.029 2407,477.053C2407,459.937 2431.329,420 2431.329,420Z" style="fill:rgb(55,156,202);"/>
                    </g>
                </g>
                <g transform="matrix(-1.56283,0,0,1.723709,6827.694905,-170.311536)">
                    <circle cx="470.31" cy="660.387" r="6.613" style="fill:white;"/>
                </g>
                <g transform="matrix(-1.56283,0,0,1.723709,7129.816964,-170.311536)">
                    <circle cx="470.31" cy="660.387" r="6.613" style="fill:white;"/>
                </g>
            </g>
        </g>
    </g>
</svg>
