<?xml version="1.0" encoding="UTF-8" standalone="no"?>
<!DOCTYPE svg PUBLIC "-//W3C//DTD SVG 1.1//EN" "http://www.w3.org/Graphics/SVG/1.1/DTD/svg11.dtd">
<svg width="100%" height="100%" viewBox="0 0 130 192" version="1.1" xmlns="http://www.w3.org/2000/svg" xmlns:xlink="http://www.w3.org/1999/xlink" xml:space="preserve" xmlns:serif="http://www.serif.com/" style="fill-rule:evenodd;clip-rule:evenodd;stroke-linecap:round;stroke-linejoin:round;stroke-miterlimit:1.5;">
    <g transform="matrix(1,0,0,1,-5330.978397,-3591)">
        <g id="Artboard1" transform="matrix(0.12037,0,0,0.142222,4643.806736,3591)">
            <rect x="5708.811" y="0" width="1080" height="1350" style="fill:none;"/>
            <clipPath id="_clip1">
                <rect x="5708.811" y="0" width="1080" height="1350"/>
            </clipPath>
            <g clip-path="url(#_clip1)">
                <g transform="matrix(1.384615,0,0,1,-2359.265631,0)">
                    <g transform="matrix(1.941044,0,0,2.274661,838.0752,-944.477967)">
                        <g transform="matrix(-0.914104,0,0,1.384188,3185.03075,-125.784226)">
                            <path d="M439.38,805.713L247.817,805.713C238.11,794.594 233,781.981 233,769.142C233,728.774 282.558,696 343.598,696C404.639,696 454.197,728.774 454.197,769.142C454.197,781.981 449.087,794.594 439.38,805.713Z" style="fill:rgb(42,196,19);"/>
                        </g>
                        <g transform="matrix(-0.932515,0,0,1,3255.688116,31.774216)">
                            <path d="M662.162,957.75L379.838,957.75C365.532,934.871 358,908.918 358,882.5C358,799.437 431.038,732 521,732C610.962,732 684,799.437 684,882.5C684,908.918 676.468,934.871 662.162,957.75Z" style="fill:rgb(42,196,19);"/>
                        </g>
                        <g transform="matrix(-1.648649,0,0,1.648649,3288.388166,-449.036595)">
                            <circle cx="266" cy="769" r="37" style="fill:rgb(42,196,19);"/>
                        </g>
                        <g transform="matrix(-0.587347,0,0,0.574405,3033.687247,414.30832)">
                            <ellipse cx="313" cy="822" rx="53" ry="21" style="fill:rgb(236,177,213);"/>
                        </g>
                        <g transform="matrix(-1.648649,0,0,1.648649,3132.738895,-449.036595)">
                            <circle cx="266" cy="769" r="37" style="fill:rgb(42,196,19);"/>
                        </g>
                        <g transform="matrix(-0.587347,0,0,0.574405,2871.616408,414.30832)">
                            <ellipse cx="313" cy="822" rx="53" ry="21" style="fill:rgb(236,177,213);"/>
                        </g>
                        <g transform="matrix(-1.424242,0,0,1.424242,3462.271868,-323.468208)">
                            <circle cx="430" cy="802" r="33" style="fill:rgb(255,196,50);"/>
                        </g>
                        <g transform="matrix(-1.424242,0,0,1.424242,3306.622597,-323.468208)">
                            <circle cx="430" cy="802" r="33" style="fill:rgb(255,196,50);"/>
                        </g>
                        <g transform="matrix(-0.685864,0,0,0.938397,3122.525636,92.44871)">
                            <path d="M604.205,955.75L438.795,955.75C430.413,945.945 426,934.822 426,923.5C426,887.901 468.792,859 521.5,859C574.208,859 617,887.901 617,923.5C617,934.822 612.587,945.945 604.205,955.75Z" style="fill:rgb(255,196,50);"/>
                        </g>
                        <g transform="matrix(0.483193,0.337033,-0.275295,0.394682,3037.976252,528.231741)">
                            <ellipse cx="295.5" cy="875.375" rx="41.5" ry="82.375" style="fill:rgb(42,196,19);"/>
                        </g>
                        <g transform="matrix(0.483193,0.337033,-0.275295,0.394682,2925.069968,528.231741)">
                            <ellipse cx="295.5" cy="875.375" rx="41.5" ry="82.375" style="fill:rgb(42,196,19);"/>
                        </g>
                        <g transform="matrix(-0.582475,0,0,1,3088.884673,158.010416)">
                            <path d="M508.209,679.779C512.917,683.567 513.101,685.333 526.741,681.883C538.376,678.941 540.783,675.469 540.783,675.469C540.783,675.469 570.666,684.793 572.876,677.683" style="fill:none;stroke:black;stroke-width:3.78px;"/>
                        </g>
                        <g transform="matrix(-1.39529,0,0,1.39529,3315.957499,-126.377139)">
                            <circle cx="445.613" cy="677.387" r="23.613" style="fill:rgb(41,41,41);"/>
                        </g>
                        <g transform="matrix(-1.39529,0,0,1.39529,3471.60677,-126.377139)">
                            <circle cx="445.613" cy="677.387" r="23.613" style="fill:rgb(41,41,41);"/>
                        </g>
                        <g transform="matrix(-1,0,0,1,4440.565513,0)">
                            <g transform="matrix(1,0,0,1,1123.025082,0)">
                                <path d="M458.993,883.126L455.174,889.883" style="fill:none;stroke:black;stroke-width:3.09px;"/>
                            </g>
                            <g transform="matrix(1,0,0,1,1123.025082,0)">
                                <path d="M468.843,884.322L465.288,891.294" style="fill:none;stroke:black;stroke-width:3.09px;"/>
                            </g>
                            <g transform="matrix(1,0,0,1,1123.025082,0)">
                                <path d="M482.542,885.078L477.834,893.339" style="fill:none;stroke:black;stroke-width:3.09px;"/>
                            </g>
                            <g transform="matrix(1,0,0,1,1123.025082,0)">
                                <path d="M620.069,884.829L617.328,890.553" style="fill:none;stroke:black;stroke-width:3.09px;"/>
                            </g>
                            <g transform="matrix(1,0,0,1,1123.025082,0)">
                                <path d="M632.51,884.243L629.926,892.634" style="fill:none;stroke:black;stroke-width:3.09px;"/>
                            </g>
                            <g transform="matrix(1,0,0,1,1123.025082,0)">
                                <path d="M644.441,884.016L642.538,890.265" style="fill:none;stroke:black;stroke-width:3.09px;"/>
                            </g>
                        </g>
                    </g>
                    <g transform="matrix(-0.571757,1.160522,-0.808907,-0.547292,6798.137958,1301.498069)">
                        <ellipse cx="295.5" cy="875.375" rx="41.5" ry="82.375" style="fill:rgb(42,196,19);"/>
                    </g>
                    <g transform="matrix(1.926035,0,0,2.257072,5156.162704,-936.531132)">
                        <g transform="matrix(1.207738,0,0,1.136714,-529.7402,40.721256)">
                            <g transform="matrix(0.546142,-0.315315,0.5,0.866025,39.616917,339.393915)">
                                <path d="M770.596,730.044C748.739,722.589 733,701.868 733,677.5C733,646.869 757.869,622 788.5,622C811.14,622 830.632,635.586 839.262,655.042C870.296,650.027 898.698,653.879 910.018,666.244C925.334,682.973 903.617,708.989 861.552,724.305C828.088,736.489 791.763,738.254 770.596,730.044Z" style="fill:rgb(255,196,50);"/>
                            </g>
                            <g transform="matrix(0.546142,-0.315315,0.5,0.866025,175.796388,339.393915)">
                                <path d="M770.596,730.044C748.739,722.589 733,701.868 733,677.5C733,646.869 757.869,622 788.5,622C811.14,622 830.632,635.586 839.262,655.042C870.296,650.027 898.698,653.879 910.018,666.244C925.334,682.973 903.617,708.989 861.552,724.305C828.088,736.489 791.763,738.254 770.596,730.044Z" style="fill:rgb(255,196,50);"/>
                            </g>
                            <g transform="matrix(0.413022,-0.238458,0.378126,0.654934,368.17907,421.806274)">
                                <path d="M770.596,730.044C748.739,722.589 733,701.868 733,677.5C733,646.869 757.869,622 788.5,622C811.14,622 830.632,635.586 839.262,655.042C870.296,650.027 898.698,653.879 910.018,666.244C925.334,682.973 903.617,708.989 861.552,724.305C828.088,736.489 791.763,738.254 770.596,730.044Z"/>
                            </g>
                            <g transform="matrix(0.413022,-0.238458,0.378126,0.654934,230.91413,421.806274)">
                                <path d="M770.596,730.044C748.739,722.589 733,701.868 733,677.5C733,646.869 757.869,622 788.5,622C811.14,622 830.632,635.586 839.262,655.042C870.296,650.027 898.698,653.879 910.018,666.244C925.334,682.973 903.617,708.989 861.552,724.305C828.088,736.489 791.763,738.254 770.596,730.044Z"/>
                            </g>
                            <g transform="matrix(1,0,0,1.5,92,-450.634814)">
                                <path d="M781.743,750.423C780.623,749.682 780,748.862 780,748C780,744.689 789.186,742 800.5,742C811.814,742 821,744.689 821,748C821,748.862 820.377,749.682 819.257,750.423C816.073,748.785 808.869,747.641 800.5,747.641C792.131,747.641 784.927,748.785 781.743,750.423Z" style="fill:rgb(255,196,50);"/>
                            </g>
                        </g>
                        <g transform="matrix(0.663268,1.242009,-0.882098,0.471066,693.700541,-30.881422)">
                            <ellipse cx="446" cy="626.232" rx="15" ry="3.591" style="fill:white;"/>
                        </g>
                        <g transform="matrix(-0.342256,0.342256,-0.707107,-0.707107,1027.865273,1073.783288)">
                            <ellipse cx="446" cy="626.232" rx="15" ry="3.591" style="fill:white;"/>
                        </g>
                        <g transform="matrix(-0.342256,0.342256,-0.707107,-0.707107,1191.84274,1073.783288)">
                            <ellipse cx="446" cy="626.232" rx="15" ry="3.591" style="fill:white;"/>
                        </g>
                        <g transform="matrix(0.663268,1.242009,-0.882098,0.471066,859.647169,-30.881422)">
                            <ellipse cx="446" cy="626.232" rx="15" ry="3.591" style="fill:white;"/>
                        </g>
                    </g>
                </g>
                <g transform="matrix(1.899531,0,0,1.607676,4987.900889,-422.564046)">
                    <g transform="matrix(0.871822,0,0,0.871822,368.378217,70.837593)">
                        <circle cx="365.5" cy="460.5" r="128.5" style="fill:rgb(255,196,50);"/>
                    </g>
                    <g transform="matrix(1.201743,0,0,1.201743,113.366708,-187.014004)">
                        <path d="M367.405,525.415C367.405,525.415 337.143,510.115 316.648,499.753C315.238,499.04 314.558,497.405 315.046,495.903C315.534,494.4 317.045,493.477 318.605,493.729C341.278,497.393 374.757,502.803 374.757,502.803C371.544,509.975 369.062,517.544 367.405,525.415ZM403.247,464.214C403.247,464.214 393.46,443.696 386.281,428.643C385.616,427.249 386.04,425.579 387.289,424.671C388.539,423.763 390.258,423.876 391.379,424.939C403.471,436.414 419.951,452.053 419.951,452.053C414.007,455.596 408.417,459.672 403.247,464.214ZM465.469,436.903C465.469,436.903 470.67,403.387 474.192,380.688C474.435,379.127 475.779,377.975 477.359,377.975C478.939,377.975 480.283,379.127 480.525,380.688C484.048,403.387 489.249,436.903 489.249,436.903C485.341,436.491 481.374,436.28 477.359,436.28C473.343,436.28 469.376,436.491 465.469,436.903ZM534.767,452.053C534.767,452.053 551.247,436.414 563.339,424.939C564.459,423.876 566.179,423.763 567.428,424.671C568.678,425.579 569.102,427.249 568.437,428.643C561.257,443.696 551.47,464.214 551.47,464.214C546.301,459.672 540.711,455.596 534.767,452.053ZM579.961,502.803C579.961,502.803 613.439,497.393 636.113,493.729C637.673,493.477 639.183,494.4 639.672,495.903C640.16,497.405 639.48,499.04 638.07,499.753C617.574,510.115 587.312,525.415 587.312,525.415C585.655,517.544 583.173,509.975 579.961,502.803ZM586.978,573.402C586.978,573.402 606.931,584.236 621.576,592.187C622.933,592.924 623.572,594.525 623.094,595.994C622.617,597.463 621.16,598.382 619.628,598.18C603.106,596.005 580.593,593.041 580.593,593.041C583.297,586.769 585.446,580.202 586.978,573.402ZM552.642,632.024C552.642,632.024 568.145,662.215 578.641,682.657C579.362,684.062 578.952,685.784 577.674,686.713C576.395,687.642 574.631,687.5 573.517,686.379C557.325,670.085 533.413,646.023 533.413,646.023C540.319,642.037 546.763,637.337 552.642,632.024ZM487.686,660.533C487.686,660.533 483.547,682.867 480.51,699.256C480.228,700.775 478.903,701.877 477.359,701.877C475.814,701.877 474.489,700.775 474.208,699.256C471.17,682.867 467.031,660.533 467.031,660.533C470.432,660.844 473.877,661.002 477.359,661.002C480.84,661.002 484.285,660.844 487.686,660.533ZM421.304,646.023C421.304,646.023 397.393,670.085 381.2,686.379C380.087,687.5 378.322,687.642 377.044,686.713C375.766,685.784 375.355,684.062 376.077,682.657C386.573,662.215 402.075,632.024 402.075,632.024C407.955,637.337 414.398,642.037 421.304,646.023ZM374.125,593.041C374.125,593.041 351.612,596.005 335.089,598.18C333.558,598.382 332.101,597.463 331.623,595.994C331.146,594.525 331.784,592.924 333.142,592.187C347.786,584.236 367.74,573.402 367.74,573.402C369.272,580.202 371.42,586.769 374.125,593.041Z" style="fill:rgb(255,196,50);"/>
                    </g>
                </g>
            </g>
        </g>
    </g>
</svg>
